<mxfile host="app.diagrams.net" modified="2024-02-28T16:21:33.599Z" agent="Mozilla/5.0 (Windows NT 10.0; Win64; x64) AppleWebKit/537.36 (KHTML, like Gecko) Chrome/122.0.0.0 Safari/537.36" etag="KsMWKDzRXy8PtizN1y4i" version="23.1.7" type="device" pages="2">
  <diagram name="PÃ¡gina-1" id="ex7WW7yLPk5kkofSAzqY">
    <mxGraphModel dx="1034" dy="454" grid="1" gridSize="10" guides="1" tooltips="1" connect="1" arrows="1" fold="1" page="1" pageScale="1" pageWidth="1200" pageHeight="1920" math="0" shadow="0">
      <root>
        <mxCell id="0" />
        <mxCell id="1" parent="0" />
        <mxCell id="pSfaTC4CccZxiBQliUpP-2" style="edgeStyle=orthogonalEdgeStyle;rounded=0;orthogonalLoop=1;jettySize=auto;html=1;" parent="1" source="pSfaTC4CccZxiBQliUpP-1" target="pSfaTC4CccZxiBQliUpP-3" edge="1">
          <mxGeometry relative="1" as="geometry">
            <mxPoint x="420" y="150" as="targetPoint" />
          </mxGeometry>
        </mxCell>
        <mxCell id="pSfaTC4CccZxiBQliUpP-1" value="DETECTID 8.1" style="rounded=0;whiteSpace=wrap;html=1;" parent="1" vertex="1">
          <mxGeometry x="190" y="90" width="120" height="60" as="geometry" />
        </mxCell>
        <mxCell id="pSfaTC4CccZxiBQliUpP-3" value="datos celular" style="rounded=0;whiteSpace=wrap;html=1;" parent="1" vertex="1">
          <mxGeometry x="410" y="90" width="120" height="60" as="geometry" />
        </mxCell>
        <mxCell id="pSfaTC4CccZxiBQliUpP-10" style="edgeStyle=orthogonalEdgeStyle;rounded=0;orthogonalLoop=1;jettySize=auto;html=1;" parent="1" source="pSfaTC4CccZxiBQliUpP-4" target="pSfaTC4CccZxiBQliUpP-6" edge="1">
          <mxGeometry relative="1" as="geometry" />
        </mxCell>
        <mxCell id="pSfaTC4CccZxiBQliUpP-4" value="detectid 9.2" style="rounded=0;whiteSpace=wrap;html=1;" parent="1" vertex="1">
          <mxGeometry x="180" y="200" width="120" height="60" as="geometry" />
        </mxCell>
        <mxCell id="pSfaTC4CccZxiBQliUpP-11" style="edgeStyle=orthogonalEdgeStyle;rounded=0;orthogonalLoop=1;jettySize=auto;html=1;" parent="1" source="pSfaTC4CccZxiBQliUpP-6" target="pSfaTC4CccZxiBQliUpP-9" edge="1">
          <mxGeometry relative="1" as="geometry" />
        </mxCell>
        <mxCell id="pSfaTC4CccZxiBQliUpP-6" value="lista" style="rounded=0;whiteSpace=wrap;html=1;" parent="1" vertex="1">
          <mxGeometry x="410" y="200" width="120" height="60" as="geometry" />
        </mxCell>
        <mxCell id="pSfaTC4CccZxiBQliUpP-14" style="edgeStyle=orthogonalEdgeStyle;rounded=0;orthogonalLoop=1;jettySize=auto;html=1;" parent="1" source="pSfaTC4CccZxiBQliUpP-9" target="pSfaTC4CccZxiBQliUpP-13" edge="1">
          <mxGeometry relative="1" as="geometry" />
        </mxCell>
        <mxCell id="pSfaTC4CccZxiBQliUpP-9" value="DETECTID 8.1" style="rounded=0;whiteSpace=wrap;html=1;" parent="1" vertex="1">
          <mxGeometry x="410" y="290" width="120" height="60" as="geometry" />
        </mxCell>
        <mxCell id="pSfaTC4CccZxiBQliUpP-19" style="edgeStyle=orthogonalEdgeStyle;rounded=0;orthogonalLoop=1;jettySize=auto;html=1;" parent="1" source="pSfaTC4CccZxiBQliUpP-12" target="pSfaTC4CccZxiBQliUpP-18" edge="1">
          <mxGeometry relative="1" as="geometry" />
        </mxCell>
        <mxCell id="pSfaTC4CccZxiBQliUpP-12" value="remover" style="rounded=0;whiteSpace=wrap;html=1;" parent="1" vertex="1">
          <mxGeometry x="580" y="410" width="120" height="60" as="geometry" />
        </mxCell>
        <mxCell id="pSfaTC4CccZxiBQliUpP-15" style="edgeStyle=orthogonalEdgeStyle;rounded=0;orthogonalLoop=1;jettySize=auto;html=1;" parent="1" source="pSfaTC4CccZxiBQliUpP-13" target="pSfaTC4CccZxiBQliUpP-12" edge="1">
          <mxGeometry relative="1" as="geometry" />
        </mxCell>
        <mxCell id="pSfaTC4CccZxiBQliUpP-17" style="edgeStyle=orthogonalEdgeStyle;rounded=0;orthogonalLoop=1;jettySize=auto;html=1;" parent="1" source="pSfaTC4CccZxiBQliUpP-13" edge="1">
          <mxGeometry relative="1" as="geometry">
            <mxPoint x="470" y="560" as="targetPoint" />
          </mxGeometry>
        </mxCell>
        <mxCell id="pSfaTC4CccZxiBQliUpP-13" value="es 8.1" style="rhombus;whiteSpace=wrap;html=1;" parent="1" vertex="1">
          <mxGeometry x="430" y="400" width="80" height="80" as="geometry" />
        </mxCell>
        <mxCell id="pSfaTC4CccZxiBQliUpP-20" style="edgeStyle=orthogonalEdgeStyle;rounded=0;orthogonalLoop=1;jettySize=auto;html=1;" parent="1" source="pSfaTC4CccZxiBQliUpP-18" target="pSfaTC4CccZxiBQliUpP-21" edge="1">
          <mxGeometry relative="1" as="geometry">
            <mxPoint x="900" y="240" as="targetPoint" />
          </mxGeometry>
        </mxCell>
        <mxCell id="pSfaTC4CccZxiBQliUpP-18" value="codigo" style="rounded=0;whiteSpace=wrap;html=1;" parent="1" vertex="1">
          <mxGeometry x="760" y="410" width="120" height="60" as="geometry" />
        </mxCell>
        <mxCell id="pSfaTC4CccZxiBQliUpP-21" value="app" style="rounded=0;whiteSpace=wrap;html=1;" parent="1" vertex="1">
          <mxGeometry x="760" y="510" width="120" height="60" as="geometry" />
        </mxCell>
        <mxCell id="pSfaTC4CccZxiBQliUpP-23" style="edgeStyle=orthogonalEdgeStyle;rounded=0;orthogonalLoop=1;jettySize=auto;html=1;" parent="1" source="pSfaTC4CccZxiBQliUpP-22" target="pSfaTC4CccZxiBQliUpP-21" edge="1">
          <mxGeometry relative="1" as="geometry" />
        </mxCell>
        <mxCell id="pSfaTC4CccZxiBQliUpP-22" value="codigo vacio" style="rounded=0;whiteSpace=wrap;html=1;" parent="1" vertex="1">
          <mxGeometry x="410" y="510" width="120" height="60" as="geometry" />
        </mxCell>
        <mxCell id="pSfaTC4CccZxiBQliUpP-24" style="edgeStyle=orthogonalEdgeStyle;rounded=0;orthogonalLoop=1;jettySize=auto;html=1;" parent="1" source="pSfaTC4CccZxiBQliUpP-25" target="pSfaTC4CccZxiBQliUpP-27" edge="1">
          <mxGeometry relative="1" as="geometry" />
        </mxCell>
        <mxCell id="pSfaTC4CccZxiBQliUpP-25" value="detectid 9.2" style="rounded=0;whiteSpace=wrap;html=1;" parent="1" vertex="1">
          <mxGeometry x="170" y="600" width="120" height="60" as="geometry" />
        </mxCell>
        <mxCell id="pSfaTC4CccZxiBQliUpP-26" style="edgeStyle=orthogonalEdgeStyle;rounded=0;orthogonalLoop=1;jettySize=auto;html=1;" parent="1" source="pSfaTC4CccZxiBQliUpP-27" target="pSfaTC4CccZxiBQliUpP-29" edge="1">
          <mxGeometry relative="1" as="geometry" />
        </mxCell>
        <mxCell id="pSfaTC4CccZxiBQliUpP-27" value="lista" style="rounded=0;whiteSpace=wrap;html=1;" parent="1" vertex="1">
          <mxGeometry x="400" y="600" width="120" height="60" as="geometry" />
        </mxCell>
        <mxCell id="pSfaTC4CccZxiBQliUpP-29" value="vacio" style="rounded=0;whiteSpace=wrap;html=1;" parent="1" vertex="1">
          <mxGeometry x="400" y="690" width="120" height="60" as="geometry" />
        </mxCell>
        <mxCell id="pSfaTC4CccZxiBQliUpP-30" style="edgeStyle=orthogonalEdgeStyle;rounded=0;orthogonalLoop=1;jettySize=auto;html=1;exitX=1;exitY=0.5;exitDx=0;exitDy=0;" parent="1" source="pSfaTC4CccZxiBQliUpP-29" target="pSfaTC4CccZxiBQliUpP-36" edge="1">
          <mxGeometry relative="1" as="geometry" />
        </mxCell>
        <mxCell id="pSfaTC4CccZxiBQliUpP-35" style="edgeStyle=orthogonalEdgeStyle;rounded=0;orthogonalLoop=1;jettySize=auto;html=1;" parent="1" source="pSfaTC4CccZxiBQliUpP-36" target="pSfaTC4CccZxiBQliUpP-37" edge="1">
          <mxGeometry relative="1" as="geometry">
            <mxPoint x="890" y="640" as="targetPoint" />
          </mxGeometry>
        </mxCell>
        <mxCell id="pSfaTC4CccZxiBQliUpP-36" value="codigo vacio" style="rounded=0;whiteSpace=wrap;html=1;" parent="1" vertex="1">
          <mxGeometry x="680" y="690" width="120" height="60" as="geometry" />
        </mxCell>
        <mxCell id="pSfaTC4CccZxiBQliUpP-37" value="app" style="rounded=0;whiteSpace=wrap;html=1;" parent="1" vertex="1">
          <mxGeometry x="860" y="800" width="120" height="60" as="geometry" />
        </mxCell>
        <mxCell id="pSfaTC4CccZxiBQliUpP-40" style="edgeStyle=orthogonalEdgeStyle;rounded=0;orthogonalLoop=1;jettySize=auto;html=1;" parent="1" source="pSfaTC4CccZxiBQliUpP-41" target="pSfaTC4CccZxiBQliUpP-43" edge="1">
          <mxGeometry relative="1" as="geometry" />
        </mxCell>
        <mxCell id="pSfaTC4CccZxiBQliUpP-41" value="detectid 9.2" style="rounded=0;whiteSpace=wrap;html=1;" parent="1" vertex="1">
          <mxGeometry x="160" y="880" width="120" height="60" as="geometry" />
        </mxCell>
        <mxCell id="pSfaTC4CccZxiBQliUpP-42" style="edgeStyle=orthogonalEdgeStyle;rounded=0;orthogonalLoop=1;jettySize=auto;html=1;" parent="1" source="pSfaTC4CccZxiBQliUpP-43" target="pSfaTC4CccZxiBQliUpP-44" edge="1">
          <mxGeometry relative="1" as="geometry" />
        </mxCell>
        <mxCell id="pSfaTC4CccZxiBQliUpP-43" value="lista" style="rounded=0;whiteSpace=wrap;html=1;" parent="1" vertex="1">
          <mxGeometry x="390" y="880" width="120" height="60" as="geometry" />
        </mxCell>
        <mxCell id="pSfaTC4CccZxiBQliUpP-44" value="9.2" style="rounded=0;whiteSpace=wrap;html=1;" parent="1" vertex="1">
          <mxGeometry x="390" y="970" width="120" height="60" as="geometry" />
        </mxCell>
        <mxCell id="pSfaTC4CccZxiBQliUpP-45" style="edgeStyle=orthogonalEdgeStyle;rounded=0;orthogonalLoop=1;jettySize=auto;html=1;exitX=1;exitY=0.5;exitDx=0;exitDy=0;" parent="1" source="pSfaTC4CccZxiBQliUpP-44" target="pSfaTC4CccZxiBQliUpP-47" edge="1">
          <mxGeometry relative="1" as="geometry" />
        </mxCell>
        <mxCell id="pSfaTC4CccZxiBQliUpP-46" style="edgeStyle=orthogonalEdgeStyle;rounded=0;orthogonalLoop=1;jettySize=auto;html=1;" parent="1" source="pSfaTC4CccZxiBQliUpP-47" target="pSfaTC4CccZxiBQliUpP-48" edge="1">
          <mxGeometry relative="1" as="geometry">
            <mxPoint x="880" y="920" as="targetPoint" />
          </mxGeometry>
        </mxCell>
        <mxCell id="pSfaTC4CccZxiBQliUpP-47" value="vacio" style="rounded=0;whiteSpace=wrap;html=1;" parent="1" vertex="1">
          <mxGeometry x="570" y="970" width="120" height="60" as="geometry" />
        </mxCell>
        <mxCell id="pSfaTC4CccZxiBQliUpP-48" value="app" style="rounded=0;whiteSpace=wrap;html=1;" parent="1" vertex="1">
          <mxGeometry x="760" y="970" width="120" height="60" as="geometry" />
        </mxCell>
      </root>
    </mxGraphModel>
  </diagram>
  <diagram id="2U53F_lq4pIQCIMai2zc" name="PÃ¡gina-2">
    <mxGraphModel dx="1034" dy="454" grid="1" gridSize="10" guides="1" tooltips="1" connect="1" arrows="1" fold="1" page="1" pageScale="1" pageWidth="1200" pageHeight="1920" math="0" shadow="0">
      <root>
        <mxCell id="0" />
        <mxCell id="1" parent="0" />
        <mxCell id="mWnhFH1IKJ1WRL0tTyf--1" value="" style="endArrow=none;html=1;rounded=0;" edge="1" parent="1" source="mWnhFH1IKJ1WRL0tTyf--4">
          <mxGeometry width="50" height="50" relative="1" as="geometry">
            <mxPoint x="320" y="200" as="sourcePoint" />
            <mxPoint x="550" y="200" as="targetPoint" />
          </mxGeometry>
        </mxCell>
        <mxCell id="mWnhFH1IKJ1WRL0tTyf--2" value="123456" style="text;html=1;align=center;verticalAlign=middle;whiteSpace=wrap;rounded=0;" vertex="1" parent="1">
          <mxGeometry x="400" y="170" width="60" height="30" as="geometry" />
        </mxCell>
        <mxCell id="mWnhFH1IKJ1WRL0tTyf--3" value="" style="html=1;shadow=0;dashed=0;shape=mxgraph.bootstrap.rrect;rSize=5;strokeColor=none;fillColor=#f6f6f6;whiteSpace=wrap;" vertex="1" parent="1">
          <mxGeometry x="130" y="230" width="800" height="20" as="geometry" />
        </mxCell>
        <mxCell id="mWnhFH1IKJ1WRL0tTyf--5" value="" style="endArrow=none;html=1;rounded=0;" edge="1" parent="1" target="mWnhFH1IKJ1WRL0tTyf--4">
          <mxGeometry width="50" height="50" relative="1" as="geometry">
            <mxPoint x="320" y="200" as="sourcePoint" />
            <mxPoint x="550" y="200" as="targetPoint" />
          </mxGeometry>
        </mxCell>
        <mxCell id="mWnhFH1IKJ1WRL0tTyf--4" value="" style="html=1;shadow=0;dashed=0;shape=mxgraph.bootstrap.leftButtonStriped;fillColor=#59B958;fontColor=#FFFFFF;whiteSpace=wrap;" vertex="1" parent="1">
          <mxGeometry x="300" y="190" width="270" height="20" as="geometry" />
        </mxCell>
      </root>
    </mxGraphModel>
  </diagram>
</mxfile>
